<svg width="16.000000" height="16.000000" viewBox="0 0 16 16" fill="none" xmlns="http://www.w3.org/2000/svg" xmlns:xlink="http://www.w3.org/1999/xlink">
	<desc>
			Created with Pixso.
	</desc>
	<defs>
		<clipPath id="clip285_25292">
			<rect id="Plus" rx="8.000000" width="16.000000" height="16.000000" fill="white" fill-opacity="0"/>
		</clipPath>
	</defs>
	<rect id="Plus" rx="8.000000" width="16.000000" height="16.000000" fill="#52A6DE" fill-opacity="0.150000"/>
	<g clip-path="url(#clip285_25292)">
		<path id="Vector" d="M11.5 7.5L8.5 7.5L8.5 4.5C8.5 4.36743 8.44727 4.24023 8.35352 4.14648C8.25977 4.05273 8.13281 4 8 4C7.86719 4 7.74023 4.05273 7.64648 4.14648C7.55273 4.24023 7.5 4.36743 7.5 4.5L7.5 7.5L4.5 7.5C4.36719 7.5 4.24023 7.55273 4.14648 7.64648C4.05273 7.74023 4 7.86743 4 8C4 8.13257 4.05273 8.25977 4.14648 8.35352C4.24023 8.44727 4.36719 8.5 4.5 8.5L7.5 8.5L7.5 11.5C7.5 11.6326 7.55273 11.7598 7.64648 11.8535C7.74023 11.9473 7.86719 12 8 12C8.13281 12 8.25977 11.9473 8.35352 11.8535C8.44727 11.7598 8.5 11.6326 8.5 11.5L8.5 8.5L11.5 8.5C11.6328 8.5 11.7598 8.44727 11.8535 8.35352C11.9473 8.25977 12 8.13257 12 8C12 7.86743 11.9473 7.74023 11.8535 7.64648C11.7598 7.55273 11.6328 7.5 11.5 7.5Z" fill="#52A6DE" fill-opacity="1.000000" fill-rule="nonzero"/>
	</g>
</svg>
