<svg width="20.000000" height="20.000000" viewBox="0 0 20 20" fill="none" xmlns="http://www.w3.org/2000/svg" xmlns:xlink="http://www.w3.org/1999/xlink">
	<desc>
			Created with Pixso.
	</desc>
	<defs/>
	<path id="checkmark-circle-2" d="M10 0C8.02246 0 6.08887 0.586487 4.44434 1.6853C2.7998 2.78412 1.51855 4.34592 0.760742 6.17316C0.00390625 8.00043 -0.193359 10.0111 0.192383 11.9509C0.578125 13.8907 1.53027 15.6725 2.92871 17.0711C4.32715 18.4696 6.10938 19.422 8.04883 19.8079C9.98926 20.1937 12 19.9957 13.8271 19.2388C15.6543 18.4819 17.2158 17.2002 18.3145 15.5557C19.4131 13.9112 20 11.9778 20 10C20 8.68677 19.7412 7.38641 19.2393 6.17316C18.7363 4.9599 18 3.85751 17.0713 2.92892C16.1426 2.00035 15.04 1.26375 13.8271 0.7612C12.6133 0.258652 11.3135 0 10 0ZM14.2998 7.60999L9.73047 13.61C9.63672 13.731 9.51758 13.8291 9.37988 13.8967C9.24316 13.9643 9.09277 13.9996 8.94043 14C8.78809 14.0008 8.6377 13.967 8.50098 13.9012C8.36426 13.8353 8.24414 13.7392 8.15039 13.62L5.70996 10.51C5.62891 10.4062 5.56934 10.2876 5.53516 10.1609C5.5 10.0341 5.49023 9.90173 5.50684 9.77127C5.52246 9.64078 5.56445 9.5148 5.62988 9.40048C5.69434 9.28616 5.78125 9.18576 5.88477 9.10501C6.09473 8.94189 6.36035 8.86868 6.62402 8.90152C6.75391 8.91776 6.87988 8.95956 6.99414 9.02451C7.1084 9.08945 7.20898 9.17627 7.29004 9.28L8.91992 11.36L12.7002 6.35999C12.7803 6.25494 12.8799 6.16669 12.9941 6.10028C13.1084 6.03387 13.2344 5.99063 13.3652 5.97299C13.4971 5.95532 13.6299 5.96365 13.7578 5.99747C13.8848 6.03125 14.0049 6.0899 14.1104 6.17001C14.2148 6.25009 14.3037 6.35013 14.3701 6.46432C14.4365 6.57855 14.4795 6.70471 14.4971 6.83566C14.5146 6.96658 14.5068 7.0997 14.4727 7.22742C14.4385 7.35513 14.3799 7.47495 14.2998 7.57999L14.2998 7.60999Z" fill="#82D173" fill-opacity="1.000000" fill-rule="nonzero"/>
</svg>
