<svg width="24.000000" height="24.000000" viewBox="0 0 24 24" fill="none" xmlns="http://www.w3.org/2000/svg" xmlns:xlink="http://www.w3.org/1999/xlink">
	<desc>
			Created with Pixso.
	</desc>
	<defs>
		<clipPath id="clip199_5142">
			<rect id="exit 1" width="24.000000" height="24.000000" fill="white" fill-opacity="0"/>
		</clipPath>
	</defs>
	<rect id="exit 1" width="24.000000" height="24.000000" fill="#FFFFFF" fill-opacity="0"/>
	<g clip-path="url(#clip199_5142)">
		<path id="Vector" d="M21 0L10 0C9.20508 0.0023737 8.44336 0.319207 7.88086 0.881302C7.31934 1.4434 7.00195 2.20508 7 3L7 9L16 9C16.7959 9 17.5586 9.31607 18.1211 9.87868C18.6836 10.4413 19 11.2044 19 12C19 12.7956 18.6836 13.5587 18.1211 14.1213C17.5586 14.6839 16.7959 15 16 15L7 15L7 21C7.00195 21.7949 7.31934 22.5566 7.88086 23.1187C8.44336 23.6808 9.20508 23.9976 10 24L21 24C21.7949 23.9976 22.5566 23.6808 23.1191 23.1187C23.6807 22.5566 23.998 21.7949 24 21L24 3C23.998 2.20508 23.6807 1.4434 23.1191 0.881302C22.5566 0.319207 21.7949 0.0023737 21 0Z" fill="#D90429" fill-opacity="1.000000" fill-rule="nonzero"/>
		<path id="Vector" d="M3.41016 13L16 13C16.2656 13 16.5195 12.8946 16.707 12.7071C16.8945 12.5196 17 12.2652 17 12C17 11.7348 16.8945 11.4804 16.707 11.2929C16.5195 11.1054 16.2656 11 16 11L3.41016 11L4.70996 9.71C4.89844 9.5217 5.00391 9.2663 5.00391 9C5.00391 8.7337 4.89844 8.47831 4.70996 8.29C4.52148 8.1017 4.2666 7.99591 4 7.99591C3.7334 7.99591 3.47852 8.1017 3.29004 8.29L0.290039 11.29C0.109375 11.4823 0.00878906 11.7362 0.00878906 12C0.00878906 12.2638 0.109375 12.5177 0.290039 12.71L3.29004 15.71C3.48145 15.8922 3.73535 15.9938 4 15.9938C4.26465 15.9938 4.51855 15.8922 4.70996 15.71C4.89746 15.5212 5.00293 15.266 5.00293 15C5.00293 14.734 4.89746 14.4788 4.70996 14.29L3.41016 13Z" fill="#D90429" fill-opacity="1.000000" fill-rule="nonzero"/>
	</g>
</svg>
