<svg width="29.193359" height="20.330017" viewBox="0 0 29.1934 20.33" fill="none" xmlns="http://www.w3.org/2000/svg" xmlns:xlink="http://www.w3.org/1999/xlink">
	<desc>
			Created with Pixso.
	</desc>
	<defs/>
	<path id="Vector" d="M27.0449 8.59888C27.876 8.94165 28.6094 9.24713 28.6709 9.28107C29.2881 9.6001 29.3799 10.5063 28.833 10.9306C28.7314 11.0053 27.8525 11.3956 26.8174 11.8199C25.8096 12.2374 24.9033 12.6141 24.8076 12.6616C24.7168 12.7125 23.5791 13.1843 22.29 13.7206C20.9961 14.2535 19.9209 14.7049 19.9033 14.7219C19.8867 14.7388 19.7471 14.8033 19.5977 14.8644C19.3779 14.9493 17.9277 15.55 15.3691 16.6158C15.25 16.6667 14.9756 16.7855 14.751 16.8805C14.5303 16.9789 13.4238 17.4406 12.291 17.9089C11.1572 18.3773 10.2129 18.7778 10.1963 18.7948C10.1797 18.8118 10.04 18.8762 9.8877 18.934C9.73828 18.9951 8.96387 19.3141 8.16699 19.6433C6.5 20.3323 6.49023 20.3357 6.23926 20.3289C5.58691 20.3154 5.15625 19.7078 5.35254 19.0901C5.4043 18.9305 7.09766 15.7367 8.03418 14.0328C8.68945 12.8415 10.084 10.2111 10.084 10.1636C10.084 10.0956 8.37402 6.88483 7.43652 5.19458C6.7207 3.9082 5.37695 1.33545 5.33594 1.17255C5.22363 0.748291 5.45508 0.259521 5.85156 0.0864258C6.23242 -0.083252 6.3916 -0.0459595 7.93945 0.592163C8.7334 0.917969 9.57227 1.26758 9.80566 1.36603C10.6855 1.74957 11.459 2.07538 12.7422 2.60486C13.4717 2.90015 14.4053 3.29724 14.8223 3.47717C15.2363 3.66046 16.4209 4.15936 17.4492 4.58362C18.4814 5.01129 19.4521 5.4118 19.6084 5.47968C19.7646 5.54755 20.1143 5.70032 20.3887 5.81909C20.6641 5.93787 21.6045 6.32819 22.4766 6.68457C23.3486 7.04773 24.2549 7.4245 24.4893 7.52295C24.7236 7.62817 25.0488 7.77069 25.2188 7.8454C25.3887 7.92004 26.21 8.25946 27.0449 8.59888ZM11.8389 9.16229L17.5137 9.16229C20.624 9.16229 23.1523 9.14545 23.1514 9.1319L23.1514 9.13171C23.1318 9.11139 22.8223 8.979 22.4697 8.82965C22.1133 8.68372 21.2549 8.32056 20.5557 8.02869C19.8594 7.7334 18.8145 7.29895 18.2334 7.05792C17.6494 6.82037 17.0186 6.54883 16.8281 6.46057C16.6348 6.37573 15.5117 5.90393 14.3232 5.41516C13.1426 4.92645 12.165 4.51917 12.1484 4.5022C12.1348 4.48859 11.5713 4.25104 10.8994 3.97272C10.2266 3.6944 9.43262 3.36176 9.13379 3.23956C8.8418 3.11737 8.58789 3.02576 8.57715 3.03589C8.56348 3.0495 8.69922 3.33459 8.87598 3.66724C9.65039 5.11987 11.4688 8.5072 11.6455 8.81946L11.8389 9.16229ZM0.577148 5.36755C0.818359 5.26917 3.16992 5.25897 3.43848 5.35736C3.84277 5.50336 4.10742 5.91742 4.07617 6.36206C4.05566 6.68787 3.91016 6.92206 3.62207 7.10876C3.40137 7.24792 3.34668 7.2547 2.12109 7.25812C1.42188 7.26489 0.791016 7.25128 0.719727 7.22754C0.339844 7.10535 0.00390625 6.68109 0 6.31116C-0.00683594 5.88348 0.217773 5.51691 0.577148 5.36755ZM7.28418 9.24365C7.09766 9.17914 6.53027 9.16217 5.12207 9.16559C3.10254 9.17578 3.03809 9.18597 2.73535 9.48804C2.40625 9.82404 2.41016 10.5131 2.74219 10.8456C3.04102 11.1443 3.10254 11.1511 5.2168 11.1545C7.0498 11.1545 7.24316 11.1443 7.43359 11.0358C8.21777 10.5844 8.12891 9.52539 7.28418 9.24365ZM20.2432 12.4274C21.1152 12.0643 22.123 11.64 22.4863 11.4872C22.8535 11.3311 23.1484 11.192 23.1484 11.1852C23.1484 11.1716 20.6025 11.1648 17.4941 11.1648L11.8389 11.1648L11.6455 11.5076C11.4824 11.7927 8.92676 16.5547 8.6416 17.1045C8.59473 17.1927 8.56348 17.2776 8.57422 17.2878C8.59082 17.3047 11.4492 16.1304 12.4463 15.696C12.6025 15.6281 13.3906 15.3022 14.1982 14.9696C15.0029 14.6336 16.3398 14.077 17.1611 13.724C17.9863 13.3744 19.3779 12.7906 20.2432 12.4274ZM3.35352 13.0856C3.36035 13.0923 3.45215 13.1365 3.55371 13.184C3.77734 13.2926 3.84863 13.3571 3.96777 13.5709C4.23926 14.0529 3.99805 14.7419 3.47559 14.9591C3.23438 15.0576 0.882812 15.0677 0.614258 14.9693C-0.176758 14.6808 -0.207031 13.5641 0.570312 13.1738C0.759766 13.0788 0.970703 13.0652 2.06348 13.0652C2.7666 13.0686 3.34277 13.0754 3.35352 13.0856Z" fill="#FFFFFF" fill-opacity="1.000000" fill-rule="evenodd"/>
</svg>
