<svg width="20.000000" height="20.000000" viewBox="0 0 20 20" fill="none" xmlns="http://www.w3.org/2000/svg" xmlns:xlink="http://www.w3.org/1999/xlink">
	<desc>
			Created with Pixso.
	</desc>
	<defs/>
	<path id="Vector" d="M10 20C15.5234 20 20 15.523 20 10C20 4.47699 15.5234 0 10 0C4.47656 0 0 4.47699 0 10C0 15.523 4.47656 20 10 20ZM9 6C9 5.73477 9.10547 5.48044 9.29297 5.29291C9.48047 5.10535 9.73438 5 10 5C10.2656 5 10.5195 5.10535 10.707 5.29291C10.8945 5.48044 11 5.73477 11 6L11 10C11 10.2652 10.8945 10.5196 10.707 10.7071C10.5195 10.8947 10.2656 11 10 11C9.73438 11 9.48047 10.8947 9.29297 10.7071C9.10547 10.5196 9 10.2652 9 10L9 6ZM11 14C11 14.2652 10.8945 14.5196 10.707 14.7071C10.5195 14.8947 10.2656 15 10 15C9.73438 15 9.48047 14.8947 9.29297 14.7071C9.10547 14.5196 9 14.2652 9 14C9 13.7348 9.10547 13.4804 9.29297 13.2929C9.48047 13.1053 9.73438 13 10 13C10.2656 13 10.5195 13.1053 10.707 13.2929C10.8945 13.4804 11 13.7348 11 14Z" fill="#FFC857" fill-opacity="1.000000" fill-rule="evenodd"/>
</svg>
