<svg width="15.330078" height="5.712524" viewBox="0 0 15.3301 5.71252" fill="none" xmlns="http://www.w3.org/2000/svg" xmlns:xlink="http://www.w3.org/1999/xlink">
	<desc>
			Created with Pixso.
	</desc>
	<defs/>
	<path id="Vector" d="M8.10059 0.015625C8.56641 0.0718994 8.80957 0.150024 9.50684 0.46875C9.98438 0.6875 10.3818 0.909424 10.8252 1.20001C11.0195 1.32501 11.2158 1.45001 11.2627 1.47504C11.3125 1.5 11.5693 1.55005 11.835 1.58752C13.0127 1.75 14.3818 2.08441 14.6406 2.27502C14.9287 2.48126 15.2002 2.94067 15.291 3.36877C15.3223 3.52502 15.335 3.7063 15.3281 3.91565C15.3164 4.26562 15.2568 4.43127 15.0879 4.62817C14.9629 4.7688 14.6445 4.93127 14.4912 4.93127L14.375 4.93127L14.4189 4.73438C14.4502 4.60626 14.46 4.44379 14.4502 4.2594C14.4102 3.46875 13.8975 2.79065 13.1221 2.5C12.8408 2.39691 12.3193 2.36877 12.0225 2.44379C11.4727 2.5813 10.96 2.99377 10.7129 3.49377C10.4814 3.96564 10.4346 4.42188 10.5723 4.89062L10.5908 4.96252L7.75684 4.96252C5.24121 4.96252 4.92578 4.9563 4.94141 4.91565C4.99121 4.78125 5.02832 4.42505 5.0127 4.21564C4.97266 3.72504 4.79395 3.35315 4.41309 2.97504C4.1377 2.70001 3.85645 2.53442 3.50684 2.4469C3.26953 2.38751 2.80664 2.38751 2.56934 2.4469C2.10938 2.5625 1.625 2.91565 1.36914 3.3219C1.12207 3.71252 1.00391 4.25629 1.08203 4.66254C1.10059 4.76562 1.10938 4.85315 1.10352 4.86255C1.07812 4.88751 0.640625 4.74066 0.457031 4.64691C0.15625 4.49689 0.078125 4.35004 0.0195312 3.8219C-0.0498047 3.25317 0.0664062 2.60626 0.332031 2.04065C0.503906 1.67816 0.616211 1.58441 1.00977 1.49689C1.41016 1.40314 1.74707 1.27814 2.55664 0.915649C2.91895 0.753174 3.30957 0.590637 3.42188 0.556274C4.04688 0.368774 5.66309 0.109375 6.72266 0.0250244C7.10059 -0.00311279 7.89453 -0.00933838 8.10059 0.015625ZM7.33496 1.14691L7.33496 1.6438L7.71582 1.66254C7.92871 1.67188 8.55078 1.6969 9.09766 1.71564C10.0352 1.74689 10.3662 1.74066 10.3662 1.68439C10.3662 1.62189 9.47266 1.15314 8.80957 0.871887C8.45703 0.721924 8.40039 0.706299 8.09082 0.684387C7.90625 0.668762 7.66309 0.65625 7.54395 0.653137L7.33496 0.650024L7.33496 1.14691ZM6.20996 0.728149C5.77246 0.756287 5.12207 0.853149 4.41602 0.996887C4.07227 1.06567 3.78125 1.12817 3.76562 1.13751C3.75391 1.14691 3.78516 1.23755 3.83496 1.34064C3.91602 1.49689 3.94141 1.52502 4.01562 1.52502C4.0625 1.52502 4.63477 1.54688 5.28809 1.5719C5.94141 1.59692 6.52246 1.61877 6.5752 1.61877L6.67871 1.61877L6.67871 1.15002L6.67871 0.681274L6.59082 0.696899C6.54395 0.703125 6.37207 0.71875 6.20996 0.728149Z" fill="#52A6DE" fill-opacity="1.000000" fill-rule="nonzero"/>
	<path id="Vector" d="M12.7627 3.0719C13.1592 3.17816 13.4756 3.43439 13.6436 3.78131C14.0068 4.52814 13.6279 5.40631 12.8379 5.65002C12.2061 5.84692 11.5283 5.54694 11.2344 4.93756C11.1504 4.7594 11.1318 4.68439 11.1221 4.44379C11.1006 4.00317 11.2217 3.70319 11.5312 3.40631C11.8818 3.07819 12.3311 2.9563 12.7627 3.0719Z" fill="#52A6DE" fill-opacity="1.000000" fill-rule="nonzero"/>
	<path id="Vector" d="M3.2998 3.07501C3.68164 3.17816 4.01562 3.45312 4.1875 3.80627C4.26855 3.97815 4.28809 4.05627 4.29688 4.29376C4.3125 4.64062 4.2627 4.84064 4.08789 5.11255C3.85352 5.47504 3.41309 5.71252 2.97559 5.71252C2.53809 5.71252 2.09668 5.47504 1.8623 5.11255C1.6875 4.84064 1.6377 4.64062 1.65332 4.29376C1.66309 4.05627 1.68164 3.97815 1.7627 3.80627C2.04395 3.22815 2.70312 2.91254 3.2998 3.07501Z" fill="#52A6DE" fill-opacity="1.000000" fill-rule="nonzero"/>
</svg>
