<svg width="20.000000" height="16.000000" viewBox="0 0 20 16" fill="none" xmlns="http://www.w3.org/2000/svg" xmlns:xlink="http://www.w3.org/1999/xlink">
	<desc>
			Created with Pixso.
	</desc>
	<defs/>
	<path id="Vector" d="M20 5.15909L20 14.1818C20 14.6818 19.8252 15.1099 19.4756 15.4659C19.126 15.822 18.7051 16 18.2139 16L1.78613 16C1.29492 16 0.874023 15.822 0.524414 15.4659C0.174805 15.1099 0 14.6818 0 14.1818L0 5.15909C0.327148 5.5303 0.703125 5.85986 1.12695 6.14774C3.82031 8.01135 5.66992 9.31818 6.67383 10.0682C7.09863 10.3864 7.44238 10.6345 7.70605 10.8125C7.9707 10.9905 8.32227 11.1724 8.76074 11.3579C9.2002 11.5435 9.60938 11.6364 9.98926 11.6364L10.0107 11.6364C10.3906 11.6364 10.7998 11.5435 11.2393 11.3579C11.6777 11.1724 12.0293 10.9905 12.2939 10.8125C12.5576 10.6345 12.9014 10.3864 13.3262 10.0682C14.5908 9.13635 16.4434 7.82956 18.8838 6.14774C19.3076 5.85226 19.6797 5.52274 20 5.15909ZM20 1.81818C20 2.41666 19.8174 2.98865 19.4531 3.53409C19.0889 4.07956 18.6348 4.54544 18.0918 4.93182C15.2939 6.90909 13.5527 8.14014 12.8682 8.625C12.7939 8.67804 12.6357 8.79355 12.3936 8.97159C12.1523 9.14963 11.9512 9.29355 11.791 9.40341C11.6309 9.51324 11.4375 9.63635 11.2109 9.77274C10.9844 9.90909 10.7705 10.0114 10.5693 10.0796C10.3682 10.1477 10.1826 10.1818 10.0107 10.1818L9.98926 10.1818C9.81738 10.1818 9.63184 10.1477 9.43066 10.0796C9.22949 10.0114 9.01562 9.90909 8.78906 9.77274C8.5625 9.63635 8.36914 9.51324 8.20898 9.40341C8.04883 9.29355 7.84766 9.14963 7.60645 8.97159C7.36426 8.79355 7.20605 8.67804 7.13184 8.625C6.45508 8.14014 5.47949 7.44885 4.20801 6.55115C2.93555 5.65341 2.17285 5.11365 1.91992 4.93182C1.45801 4.61365 1.02344 4.17615 0.614258 3.61932C0.205078 3.0625 0 2.54544 0 2.06818C0 1.47726 0.154297 0.984848 0.462891 0.590912C0.771484 0.196976 1.21289 0 1.78613 0L18.2139 0C18.6982 0 19.1162 0.178024 19.4697 0.534088C19.8232 0.890152 20 1.31818 20 1.81818Z" fill="#9294AD" fill-opacity="1.000000" fill-rule="nonzero"/>
</svg>
