<svg width="22.002930" height="11.000000" viewBox="0 0 22.0029 11" fill="none" xmlns="http://www.w3.org/2000/svg" xmlns:xlink="http://www.w3.org/1999/xlink">
	<desc>
			Created with Pixso.
	</desc>
	<defs/>
	<path id="Vector" d="M16.2539 9.5L5.67383 9.5C3.58398 9.5 1.72363 7.96997 1.52344 5.89001C1.29395 3.5 3.16406 1.5 5.50391 1.5L17.8633 1.5C19.1738 1.5 20.3633 2.44 20.4941 3.73999C20.6436 5.23999 19.4736 6.5 18.0039 6.5L7.50391 6.5C6.9541 6.5 6.50391 6.04999 6.50391 5.5C6.50391 4.95001 6.9541 4.5 7.50391 4.5L16.2539 4.5C16.6641 4.5 17.0039 4.15997 17.0039 3.75C17.0039 3.34003 16.6641 3 16.2539 3L7.64355 3C6.33398 3 5.14355 3.94 5.01367 5.23999C4.86328 6.73999 6.03418 8 7.50391 8L17.834 8C19.9238 8 21.7842 6.46997 21.9834 4.39001C22.2139 2.01001 20.3438 0 18.0039 0L5.7334 0C2.86328 0 0.293945 2.09998 0.0234375 4.96002C-0.276367 8.25 2.28418 11 5.50391 11L16.2539 11C16.6641 11 17.0039 10.66 17.0039 10.25C17.0039 9.84003 16.6641 9.5 16.2539 9.5Z" fill="#9294AD" fill-opacity="1.000000" fill-rule="nonzero"/>
</svg>
