<svg width="17.963867" height="17.963654" viewBox="0 0 17.9639 17.9637" fill="none" xmlns="http://www.w3.org/2000/svg" xmlns:xlink="http://www.w3.org/1999/xlink">
	<desc>
			Created with Pixso.
	</desc>
	<defs/>
	<path id="Vector" d="M16.2041 12.25L13.6641 11.96C13.0537 11.89 12.4541 12.1 12.0234 12.53L10.1836 14.37C7.35352 12.93 5.0332 10.62 3.59375 7.78L5.44336 5.92999C5.87402 5.5 6.08398 4.89999 6.01367 4.29001L5.72363 1.77C5.60352 0.759995 4.75391 0 3.7334 0L2.00391 0C0.874023 0 -0.0664062 0.940002 0.00390625 2.07001C0.533203 10.61 7.36328 17.43 15.8936 17.96C17.0234 18.03 17.9639 17.09 17.9639 15.96L17.9639 14.23C17.9736 13.22 17.2139 12.37 16.2041 12.25Z" fill="#9294AD" fill-opacity="1.000000" fill-rule="nonzero"/>
</svg>
