<svg width="23.991211" height="11.242676" viewBox="0 0 23.9912 11.2427" fill="none" xmlns="http://www.w3.org/2000/svg" xmlns:xlink="http://www.w3.org/1999/xlink">
	<desc>
			Created with Pixso.
	</desc>
	<defs/>
	<path id="Vector" d="M1.12988 0.0864258C0.979492 0.156738 0.90918 0.227051 0.838867 0.377075C0.75 0.569275 0.745117 0.7146 0.745117 4.11768C0.745117 7.52081 0.75 7.66614 0.838867 7.85834C0.90918 8.013 0.974609 8.07861 1.12988 8.14893C1.32617 8.23804 1.52832 8.24268 11.5732 8.24268C22.8418 8.24268 22.1152 8.26147 22.6875 7.95679C23.0674 7.75049 23.3018 7.53955 23.5449 7.17395C24.042 6.42395 24.1172 5.71613 23.7891 4.87238C22.9736 2.763 21.3232 1.16455 19.1953 0.41925C18.9658 0.3396 18.5244 0.213013 18.2109 0.1474L17.6436 0.020813L9.4873 0.0067749C1.47168 -0.00732422 1.32617 -0.00732422 1.12988 0.0864258ZM5.24512 2.61768L5.24512 3.74268L3.74512 3.74268L2.24512 3.74268L2.24512 2.61768L2.24512 1.49268L3.74512 1.49268L5.24512 1.49268L5.24512 2.61768ZM9.74512 2.61768L9.74512 3.74268L8.24512 3.74268L6.74512 3.74268L6.74512 2.61768L6.74512 1.49268L8.24512 1.49268L9.74512 1.49268L9.74512 2.61768ZM14.2451 2.61768L14.2451 3.74268L12.7451 3.74268L11.2451 3.74268L11.2451 2.61768L11.2451 1.49268L12.7451 1.49268L14.2451 1.49268L14.2451 2.61768ZM17.4697 1.53955C18.7871 1.70831 19.9775 2.27081 20.915 3.17554C21.1455 3.39581 21.3516 3.61145 21.375 3.65833C21.417 3.73804 21.2861 3.74268 18.5811 3.74268L15.7451 3.74268L15.7451 2.61768L15.7451 1.49268L16.415 1.49268C16.7812 1.49268 17.2549 1.51611 17.4697 1.53955Z" fill="#52A6DE" fill-opacity="1.000000" fill-rule="nonzero"/>
	<path id="Vector" d="M0.379883 9.83643C-0.126953 10.0661 -0.126953 10.9193 0.379883 11.1489C0.576172 11.238 0.791992 11.2427 11.9951 11.2427C23.1982 11.2427 23.4141 11.238 23.6113 11.1489C24.1172 10.9193 24.1172 10.0661 23.6113 9.83643C23.4141 9.74738 23.1982 9.74268 11.9951 9.74268C0.791992 9.74268 0.576172 9.74738 0.379883 9.83643Z" fill="#52A6DE" fill-opacity="1.000000" fill-rule="nonzero"/>
</svg>
