<svg width="17.993164" height="20.713837" viewBox="0 0 17.9932 20.7138" fill="none" xmlns="http://www.w3.org/2000/svg" xmlns:xlink="http://www.w3.org/1999/xlink">
	<desc>
			Created with Pixso.
	</desc>
	<defs/>
	<path id="Vector" d="M4.65039 0.0823975C4.56543 0.124603 4.44824 0.223022 4.39258 0.302704C4.29395 0.43866 4.28906 0.504272 4.27539 1.36679L4.26074 2.29022L3.88184 2.34647C1.7627 2.65585 0.473633 3.89804 0.117188 5.97458C0.0146484 6.58865 0.0234375 6.72458 0.182617 6.90271L0.319336 7.0574L9 7.0574L17.6816 7.0574L17.8174 6.90271C17.9766 6.72458 17.9863 6.58865 17.8828 5.97458C17.5264 3.89804 16.2373 2.65585 14.1191 2.34647L13.7344 2.29022L13.7344 1.42303C13.7344 0.71991 13.7207 0.52771 13.6592 0.396454C13.5469 0.162079 13.3408 0.0355225 13.0361 0.012085C12.708 -0.0113525 12.4971 0.115204 12.3428 0.424591C12.2441 0.616791 12.2344 0.696472 12.2344 1.44177L12.2344 2.25272L9.00488 2.25272L5.77539 2.25272L5.75684 1.3949C5.74219 0.635529 5.7334 0.523041 5.64355 0.377716C5.44238 0.0308533 5.01562 -0.100403 4.65039 0.0823975Z" fill="#9294AD" fill-opacity="1.000000" fill-rule="nonzero"/>
	<path id="Vector" d="M0.572266 8.67929C0.333008 8.79648 0.107422 9.05429 0.046875 9.28397C0.0185547 9.38242 0 10.7793 0 12.8324C0 15.5746 0.0136719 16.3199 0.0703125 16.7512C0.210938 17.8387 0.581055 18.7012 1.18555 19.3434C1.67773 19.873 2.19824 20.1918 2.95312 20.4402C3.82031 20.7215 3.89062 20.7262 9.23438 20.7074C13.9551 20.6934 14.0957 20.6934 14.5078 20.5949C16.5752 20.1168 17.7051 18.7949 17.9531 16.573C17.9863 16.259 18 14.9746 17.9902 12.6777L17.9766 9.25586L17.8457 9.05899C17.7754 8.95117 17.6299 8.80585 17.5215 8.73553L17.3252 8.60428L9.05176 8.59024L0.773438 8.58084L0.572266 8.67929ZM5.96289 11.8668C6.34668 12.0637 6.57227 12.5418 6.46875 12.9449C6.38477 13.2683 6.2207 13.4793 5.94824 13.6152C5.53613 13.8168 5.12305 13.7559 4.80469 13.4324C4.48145 13.1137 4.41992 12.7012 4.62207 12.2887C4.875 11.7824 5.44238 11.6043 5.96289 11.8668ZM9.46875 11.8621C10.2051 12.2371 10.1387 13.3387 9.36523 13.6621C8.7373 13.9293 8.02051 13.4371 8.01562 12.7387C8.01074 11.9793 8.78418 11.5152 9.46875 11.8621ZM12.9844 11.8762C13.5518 12.1668 13.6641 12.9684 13.2002 13.4324C12.877 13.7559 12.4639 13.8215 12.0518 13.6152C11.5029 13.3387 11.334 12.6355 11.7002 12.1527C12.0186 11.7402 12.502 11.6324 12.9844 11.8762ZM5.94824 15.359C6.5625 15.6684 6.68457 16.4324 6.1875 16.9246C5.69531 17.4215 4.93164 17.2996 4.62207 16.6855C4.41992 16.273 4.48145 15.8605 4.80469 15.5418C5.12305 15.2184 5.53613 15.1527 5.94824 15.359ZM9.30957 15.3074C9.84375 15.4668 10.1348 16.0996 9.91406 16.634C9.58105 17.4215 8.41895 17.4215 8.08594 16.634C7.87012 16.109 8.15137 15.4715 8.67676 15.3074C8.94824 15.2231 9.0332 15.2231 9.30957 15.3074ZM12.7871 15.2934C13.1855 15.3918 13.5 15.823 13.5 16.2777C13.5 16.5168 13.2842 16.9106 13.083 17.0418C12.6328 17.3324 12.1777 17.2949 11.8125 16.9246C11.4424 16.559 11.4043 16.1043 11.7002 15.6496C11.8076 15.4809 11.9902 15.3543 12.2344 15.2793C12.4082 15.2277 12.5439 15.2324 12.7871 15.2934Z" fill="#9294AD" fill-opacity="1.000000" fill-rule="nonzero"/>
</svg>
