<svg width="48.000000" height="48.000000" viewBox="0 0 48 48" fill="none" xmlns="http://www.w3.org/2000/svg" xmlns:xlink="http://www.w3.org/1999/xlink">
	<desc>
			Created with Pixso.
	</desc>
	<defs>
		<clipPath id="clip285_27316">
			<rect id="chat 1" width="32.000000" height="32.000000" transform="translate(8.000000 8.000000)" fill="white" fill-opacity="0"/>
		</clipPath>
	</defs>
	<rect id="Frame 8" rx="24.000000" width="48.000000" height="48.000000" fill="#FFFFFF" fill-opacity="0.750000"/>
	<rect id="chat 1" width="32.000000" height="32.000000" transform="translate(8.000000 8.000000)" fill="#FFFFFF" fill-opacity="0"/>
	<g clip-path="url(#clip285_27316)">
		<path id="Vector" d="M35.9102 19.79C36.0859 20.582 36.1885 21.396 36.1885 22.232C36.1885 28.688 30.708 34.07 23.4922 35.226C25.0176 35.842 26.7275 36.202 28.5498 36.202C30.2676 36.202 31.8896 35.886 33.3535 35.336C35.208 35.968 37.2324 36.132 38.9062 36.132C38.1504 35.2255 37.5098 34.2285 37 33.164C38.8564 31.508 40 29.314 40 26.898C40 24.042 38.4062 21.496 35.9102 19.79ZM33.1885 22.232C33.1885 16.582 27.5498 12 20.5938 12C13.6377 12 8 16.582 8 22.232C8 25.18 9.54199 27.828 11.998 29.696C11.3818 31.2736 10.5137 32.7406 9.42773 34.04C11.9443 34.04 15.1836 33.71 17.6777 32.178C18.6162 32.36 19.5898 32.466 20.5938 32.466C27.5498 32.464 33.1885 27.884 33.1885 22.232Z" fill="#52A6DE" fill-opacity="1.000000" fill-rule="evenodd"/>
	</g>
	<circle id="Ellipse 14" cx="43.000000" cy="9.000000" r="4.000000" fill="#D90429" fill-opacity="1.000000"/>
</svg>
