<svg width="192.000000" height="192.000000" viewBox="0 0 192 192" fill="none" xmlns="http://www.w3.org/2000/svg" xmlns:xlink="http://www.w3.org/1999/xlink">
	<desc>
			Created with Pixso.
	</desc>
	<defs>
		<filter id="filter_179_1360_dd" x="0.000000" y="0.000000" width="192.000000" height="192.000000" filterUnits="userSpaceOnUse" color-interpolation-filters="sRGB">
			<feFlood flood-opacity="0" result="BackgroundImageFix"/>
			<feColorMatrix in="SourceAlpha" type="matrix" values="0 0 0 0 0 0 0 0 0 0 0 0 0 0 0 0 0 0 127 0" result="hardAlpha"/>
			<feOffset dx="0" dy="8"/>
			<feGaussianBlur stdDeviation="21.3333"/>
			<feComposite in2="hardAlpha" operator="out" k2="-1" k3="1"/>
			<feColorMatrix type="matrix" values="0 0 0 0 0.10588 0 0 0 0 0.54118 0 0 0 0 0.83137 0 0 0 0.25 0"/>
			<feBlend mode="normal" in2="BackgroundImageFix" result="effect_dropShadow_1"/>
			<feBlend mode="normal" in="SourceGraphic" in2="effect_dropShadow_1" result="shape"/>
		</filter>
	</defs>
	<g filter="url(#filter_179_1360_dd)">
		<circle id="Ellipse 4" r="32.000000" transform="matrix(-1 -1 8.74228e-08 -8.74228e-08 96 88)" fill="#FFFFFF" fill-opacity="1.000000"/>
	</g>
	<path id="Vector" d="M100 79C100.3 79 100.5 79.1 100.7 79.3C101.1 79.7 101.1 80.3 100.7 80.7L93.3999 88L100.7 95.3C101.1 95.7 101.1 96.3 100.7 96.7C100.3 97.1 99.7 97.1 99.3 96.7L91.3 88.7C90.8999 88.3 90.8999 87.7 91.3 87.3L99.3 79.3C99.5 79.1 99.8 79 100 79Z" fill="#52A6DE" fill-opacity="1.000000" fill-rule="nonzero"/>
</svg>
