<svg width="174.000000" height="48.000000" viewBox="0 0 174 48" fill="none" xmlns="http://www.w3.org/2000/svg" xmlns:xlink="http://www.w3.org/1999/xlink">
	<desc>
			Created with Pixso.
	</desc>
	<defs>
		<clipPath id="clip209_19">
			<rect id="user 1" width="54.000000" height="54.000000" transform="translate(59.000000 6.000000)" fill="white" fill-opacity="0"/>
		</clipPath>
		<clipPath id="clip209_18">
			<rect id="Frame 7" rx="24.000000" width="48.000000" height="48.000000" transform="translate(62.000000 0.000000)" fill="white" fill-opacity="0"/>
		</clipPath>
		<clipPath id="clip285_27296">
			<rect id="chat 1" width="32.000000" height="32.000000" transform="translate(134.000000 8.000000)" fill="white" fill-opacity="0"/>
		</clipPath>
	</defs>
	<path id="Войти" d="M1.92969 29.6875L1.92969 19.0234L6.17969 19.0234C8.03906 19.0234 9.24219 20.0234 9.24219 21.6484C9.24219 22.8984 8.53906 23.6953 7.47656 23.9922L7.47656 24.0703C8.82031 24.2266 9.82031 25.1406 9.82031 26.6875C9.82031 28.5781 8.32812 29.6875 6.10156 29.6875L1.92969 29.6875ZM3.69531 20.4297L3.69531 23.5312L5.19531 23.5312C6.78125 23.5312 7.48438 23 7.48438 21.9453C7.48438 21 6.86719 20.4297 5.8125 20.4297L3.69531 20.4297ZM3.69531 24.8672L3.69531 28.2812L5.39062 28.2812C7.25781 28.2812 8.01562 27.75 8.01562 26.625C8.01562 25.5234 7.27344 24.8672 5.95312 24.8672L3.69531 24.8672ZM15.0391 21.2891C17.4141 21.2891 18.7031 22.9609 18.7031 25.2109L18.7031 25.875C18.7031 28.2031 17.4219 29.8281 15.0391 29.8281C12.6562 29.8281 11.3594 28.2031 11.3594 25.875L11.3594 25.2109C11.3594 22.9688 12.6641 21.2891 15.0391 21.2891ZM15.0391 22.6797C13.75 22.6797 13.1094 23.7344 13.1094 25.2344L13.1094 25.8672C13.1094 27.3438 13.7422 28.4297 15.0391 28.4297C16.3359 28.4297 16.9609 27.3516 16.9609 25.8672L16.9609 25.2344C16.9609 23.7266 16.3281 22.6797 15.0391 22.6797ZM21.8906 18.0781L23 18.0781C23 18.7891 23.375 19.3828 24.2578 19.3828C25.1406 19.3828 25.5156 18.7891 25.5156 18.0781L26.625 18.0781C26.6172 19.2109 25.8828 20.3516 24.2578 20.3516C22.6406 20.3516 21.8906 19.2109 21.8906 18.0781ZM26.125 29.6875L26.125 24L26.0625 24L22.3359 29.6875L20.7422 29.6875L20.7422 21.4297L22.4062 21.4297L22.4062 27.1172L22.4688 27.1172L26.1953 21.4297L27.7891 21.4297L27.7891 29.6875L26.125 29.6875ZM36.2188 22.7812L33.6406 22.7812L33.6406 29.6875L31.9141 29.6875L31.9141 22.7812L29.3359 22.7812L29.3359 21.4297L36.2188 21.4297L36.2188 22.7812ZM43.1562 29.6875L43.1562 24L43.0938 24L39.3672 29.6875L37.7734 29.6875L37.7734 21.4297L39.4375 21.4297L39.4375 27.1172L39.5 27.1172L43.2266 21.4297L44.8203 21.4297L44.8203 29.6875L43.1562 29.6875Z" fill="#FFFFFF" fill-opacity="1.000000" fill-rule="evenodd"/>
	<rect id="Frame 7" rx="24.000000" width="48.000000" height="48.000000" transform="translate(62.000000 0.000000)" fill="#FFFFFF" fill-opacity="0.750000"/>
	<g clip-path="url(#clip209_18)">
		<rect id="user 1" width="54.000000" height="54.000000" transform="translate(59.000000 6.000000)" fill="#FFFFFF" fill-opacity="0"/>
		<g clip-path="url(#clip209_19)">
			<path id="Vector" d="M97.1714 18.015C97.1714 11.8556 92.1592 6.84375 86 6.84375C79.8408 6.84375 74.8286 11.8556 74.8286 18.015C74.8286 24.1575 79.8408 29.1694 86 29.1694C92.1592 29.1694 97.1714 24.1575 97.1714 18.015ZM66.5938 50.875L66.5938 54.25C66.5938 57.5069 69.2432 60.1562 72.5 60.1562L99.5 60.1562C102.757 60.1562 105.406 57.5069 105.406 54.25L105.406 50.875C105.406 40.1762 96.6987 31.4688 86 31.4688C75.3013 31.4688 66.5938 40.1762 66.5938 50.875Z" fill="#FFFFFF" fill-opacity="1.000000" fill-rule="nonzero"/>
		</g>
	</g>
	<rect id="Frame 8" rx="24.000000" width="48.000000" height="48.000000" transform="translate(126.000000 0.000000)" fill="#FFFFFF" fill-opacity="0.750000"/>
	<rect id="chat 1" width="32.000000" height="32.000000" transform="translate(134.000000 8.000000)" fill="#FFFFFF" fill-opacity="0"/>
	<g clip-path="url(#clip285_27296)">
		<path id="Vector" d="M161.91 19.79C162.086 20.582 162.188 21.396 162.188 22.232C162.188 28.688 156.708 34.07 149.492 35.226C151.018 35.842 152.728 36.202 154.55 36.202C156.268 36.202 157.89 35.886 159.354 35.336C161.208 35.968 163.232 36.132 164.906 36.132C164.15 35.2255 163.51 34.2285 163 33.164C164.856 31.508 166 29.314 166 26.898C166 24.042 164.406 21.496 161.91 19.79ZM159.188 22.232C159.188 16.582 153.55 12 146.594 12C139.638 12 134 16.582 134 22.232C134 25.18 135.542 27.828 137.998 29.696C137.382 31.2736 136.514 32.7406 135.428 34.04C137.944 34.04 141.184 33.71 143.678 32.178C144.616 32.36 145.59 32.466 146.594 32.466C153.55 32.464 159.188 27.884 159.188 22.232Z" fill="#52A6DE" fill-opacity="1.000000" fill-rule="evenodd"/>
	</g>
	<circle id="Ellipse 14" cx="169.000000" cy="9.000000" r="4.000000" fill="#D90429" fill-opacity="1.000000"/>
</svg>
