<svg width="48.000000" height="48.000000" viewBox="0 0 48 48" fill="none" xmlns="http://www.w3.org/2000/svg" xmlns:xlink="http://www.w3.org/1999/xlink">
	<desc>
			Created with Pixso.
	</desc>
	<defs>
		<clipPath id="clip209_19">
			<rect id="user 1" width="54.000000" height="54.000000" transform="translate(-3.000000 6.000000)" fill="white" fill-opacity="0"/>
		</clipPath>
		<clipPath id="clip209_18">
			<rect id="Frame 7" rx="24.000000" width="48.000000" height="48.000000" fill="white" fill-opacity="0"/>
		</clipPath>
	</defs>
	<rect id="Frame 7" rx="24.000000" width="48.000000" height="48.000000" fill="#FFFFFF" fill-opacity="0.750000"/>
	<g clip-path="url(#clip209_18)">
		<rect id="user 1" width="54.000000" height="54.000000" transform="translate(-3.000000 6.000000)" fill="#FFFFFF" fill-opacity="0"/>
		<g clip-path="url(#clip209_19)">
			<path id="Vector" d="M35.1714 18.015C35.1714 11.8556 30.1592 6.84375 24 6.84375C17.8408 6.84375 12.8286 11.8556 12.8286 18.015C12.8286 24.1575 17.8408 29.1694 24 29.1694C30.1592 29.1694 35.1714 24.1575 35.1714 18.015ZM4.59375 50.875L4.59375 54.25C4.59375 57.5069 7.24316 60.1562 10.5 60.1562L37.5 60.1562C40.7568 60.1562 43.4062 57.5069 43.4062 54.25L43.4062 50.875C43.4062 40.1762 34.6987 31.4688 24 31.4688C13.3013 31.4688 4.59375 40.1762 4.59375 50.875Z" fill="#FFFFFF" fill-opacity="1.000000" fill-rule="nonzero"/>
		</g>
	</g>
</svg>
