<svg width="192.000000" height="192.000000" viewBox="0 0 192 192" fill="none" xmlns="http://www.w3.org/2000/svg" xmlns:xlink="http://www.w3.org/1999/xlink">
	<desc>
			Created with Pixso.
	</desc>
	<defs>
		<filter id="filter_179_1363_dd" x="0.000000" y="0.000000" width="192.000000" height="192.000000" filterUnits="userSpaceOnUse" color-interpolation-filters="sRGB">
			<feFlood flood-opacity="0" result="BackgroundImageFix"/>
			<feColorMatrix in="SourceAlpha" type="matrix" values="0 0 0 0 0 0 0 0 0 0 0 0 0 0 0 0 0 0 127 0" result="hardAlpha"/>
			<feOffset dx="0" dy="8"/>
			<feGaussianBlur stdDeviation="21.3333"/>
			<feComposite in2="hardAlpha" operator="out" k2="-1" k3="1"/>
			<feColorMatrix type="matrix" values="0 0 0 0 0.10588 0 0 0 0 0.54118 0 0 0 0 0.83137 0 0 0 0.25 0"/>
			<feBlend mode="normal" in2="BackgroundImageFix" result="effect_dropShadow_1"/>
			<feBlend mode="normal" in="SourceGraphic" in2="effect_dropShadow_1" result="shape"/>
		</filter>
	</defs>
	<g filter="url(#filter_179_1363_dd)">
		<circle id="Ellipse 4" r="32.000000" transform="matrix(1 1 1.22465e-16 -1.22465e-16 96 88)" fill="#FFFFFF" fill-opacity="1.000000"/>
	</g>
	<path id="Vector" d="M92 97C91.7002 97 91.5 96.9 91.2998 96.7C90.8999 96.3 90.8999 95.7 91.2998 95.3L98.6001 88L91.2998 80.7C90.8999 80.3 90.8999 79.7 91.2998 79.3C91.7002 78.9 92.2998 78.9 92.7002 79.3L100.7 87.3C101.1 87.7 101.1 88.3 100.7 88.7L92.7002 96.7C92.5 96.9 92.2002 97 92 97Z" fill="#52A6DE" fill-opacity="1.000000" fill-rule="nonzero"/>
</svg>
