<svg width="40.000000" height="17.000000" viewBox="0 0 40 17" fill="none" xmlns="http://www.w3.org/2000/svg" xmlns:xlink="http://www.w3.org/1999/xlink">
	<desc>
			Created with Pixso.
	</desc>
	<defs>
		<clipPath id="clip179_1401">
			<rect id="star 1" width="16.000000" height="16.000000" transform="translate(0.000000 0.500000)" fill="white" fill-opacity="0"/>
		</clipPath>
	</defs>
	<rect id="star 1" width="16.000000" height="16.000000" transform="translate(0.000000 0.500000)" fill="#FFFFFF" fill-opacity="0"/>
	<g clip-path="url(#clip179_1401)">
		<path id="Vector" d="M5.75781 5.9137L7.55176 2.27872C7.73511 1.9071 8.26489 1.9071 8.44849 2.27872L10.2424 5.9137L14.2539 6.49658C14.6638 6.55618 14.8276 7.06015 14.531 7.34943L11.6282 10.1789L12.3135 14.1741C12.3835 14.5826 11.9548 14.894 11.5879 14.7012L8 12.8149L4.41211 14.7012C4.04541 14.894 3.6167 14.5826 3.68652 14.1741L4.37183 10.1789L1.46924 7.34943C1.17236 7.06015 1.33618 6.55618 1.74634 6.49658L5.75781 5.9137Z" fill="#FFC857" fill-opacity="1.000000" fill-rule="nonzero"/>
	</g>
	<path id="4.5" d="M24.4014 4.14551L26.6162 4.14551L26.6162 10.3662L27.792 10.3662L27.792 11.6582L26.6162 11.6582L26.6162 13.4766L25.1533 13.4766L25.1533 11.6582L20.6279 11.6582L20.6279 10.373C21.7559 8.29492 23.0752 6.16895 24.4014 4.14551ZM22.084 10.3662L25.1533 10.3662L25.1533 5.38281L25.1055 5.38281C24.0732 6.93457 22.9863 8.69824 22.084 10.3457L22.084 10.3662ZM29.043 12.6768C29.043 12.1641 29.46 11.7402 29.9795 11.7402C30.4922 11.7402 30.916 12.1641 30.916 12.6768C30.916 13.1963 30.4922 13.6201 29.9795 13.6201C29.46 13.6201 29.043 13.1963 29.043 12.6768ZM32.5635 11.043L34.0127 11.043C34.1426 11.9043 34.8604 12.3965 35.8516 12.3965C36.7471 12.3965 37.7383 11.6992 37.7383 10.4346C37.7383 9.24512 36.9043 8.49316 35.8652 8.49316C34.8262 8.49316 34.2588 9.07422 34.0195 9.59375L32.6797 9.59375L33.1514 4.13867L38.5791 4.13867L38.5791 5.42383L34.416 5.42383L34.1426 8.06934L34.1904 8.06934C34.416 7.74805 35.1475 7.26953 36.1934 7.26953C37.8477 7.26953 39.2764 8.48633 39.2764 10.373C39.2764 12.3555 37.7793 13.6611 35.7832 13.6611C33.7529 13.6611 32.6387 12.4512 32.5635 11.043Z" fill="#9294AD" fill-opacity="1.000000" fill-rule="evenodd"/>
</svg>
