<svg width="24.000000" height="24.000000" viewBox="0 0 24 24" fill="none" xmlns="http://www.w3.org/2000/svg" xmlns:xlink="http://www.w3.org/1999/xlink">
	<desc>
			Created with Pixso.
	</desc>
	<defs>
		<clipPath id="clip179_1335">
			<rect id="train 1" width="24.000000" height="24.000000" fill="white" fill-opacity="0"/>
		</clipPath>
	</defs>
	<rect id="train 1" width="24.000000" height="24.000000" fill="#FFFFFF" fill-opacity="0"/>
	<g clip-path="url(#clip179_1335)">
		<path id="Vector" d="M1.13428 7.59377C0.984375 7.66408 0.914062 7.73439 0.84375 7.88439C0.754639 8.07658 0.75 8.22189 0.75 11.625C0.75 15.0281 0.754639 15.1735 0.84375 15.3656C0.914062 15.5203 0.979736 15.586 1.13428 15.6563C1.3313 15.7453 1.53271 15.75 11.5781 15.75C22.8469 15.75 22.1204 15.7688 22.6921 15.4641C23.0718 15.2578 23.3062 15.0469 23.55 14.6813C24.0469 13.9313 24.1218 13.2235 23.7937 12.3797C22.978 10.2703 21.3281 8.67189 19.2 7.92658C18.9702 7.84689 18.5298 7.72033 18.2156 7.65471L17.6484 7.52814L9.49219 7.51408C1.47656 7.50002 1.3313 7.50002 1.13428 7.59377ZM5.25 10.125L5.25 11.25L3.75 11.25L2.25 11.25L2.25 10.125L2.25 9.00002L3.75 9.00002L5.25 9.00002L5.25 10.125ZM9.75 10.125L9.75 11.25L8.25 11.25L6.75 11.25L6.75 10.125L6.75 9.00002L8.25 9.00002L9.75 9.00002L9.75 10.125ZM14.25 10.125L14.25 11.25L12.75 11.25L11.25 11.25L11.25 10.125L11.25 9.00002L12.75 9.00002L14.25 9.00002L14.25 10.125ZM17.4751 9.04689C18.7922 9.21564 19.9829 9.77814 20.9204 10.6828C21.1499 10.9031 21.3562 11.1188 21.3796 11.1656C21.4219 11.2453 21.2905 11.25 18.5859 11.25L15.75 11.25L15.75 10.125L15.75 9.00002L16.4204 9.00002C16.7859 9.00002 17.2593 9.02345 17.4751 9.04689Z" fill="#52A6DE" fill-opacity="1.000000" fill-rule="nonzero"/>
		<path id="Vector" d="M0.384277 17.3438C-0.121826 17.5734 -0.121826 18.4266 0.384277 18.6562C0.581299 18.7453 0.796875 18.75 12 18.75C23.2031 18.75 23.4187 18.7453 23.6155 18.6562C24.1218 18.4266 24.1218 17.5734 23.6155 17.3438C23.4187 17.2547 23.2031 17.25 12 17.25C0.796875 17.25 0.581299 17.2547 0.384277 17.3438Z" fill="#52A6DE" fill-opacity="1.000000" fill-rule="nonzero"/>
	</g>
</svg>
