<svg width="23.242676" height="8.242920" viewBox="0 0 23.2427 8.24292" fill="none" xmlns="http://www.w3.org/2000/svg" xmlns:xlink="http://www.w3.org/1999/xlink">
	<desc>
			Created with Pixso.
	</desc>
	<defs/>
	<path id="Vector" d="M0.384277 0.086441C0.234375 0.156754 0.164062 0.227066 0.09375 0.377068C0.00463867 0.56926 0 0.714569 0 4.11769C0 7.52082 0.00463867 7.66613 0.09375 7.85832C0.164062 8.01301 0.229736 8.07863 0.384277 8.14894C0.581299 8.23801 0.782715 8.24269 10.8281 8.24269C22.0969 8.24269 21.3704 8.26144 21.9421 7.95676C22.3218 7.7505 22.5562 7.53957 22.8 7.17394C23.2969 6.42394 23.3718 5.71613 23.0437 4.87238C22.228 2.76301 20.5781 1.16457 18.45 0.419258C18.2202 0.339569 17.7798 0.213005 17.4656 0.147385L16.8984 0.0208206L8.74219 0.00675964C0.726562 -0.00730896 0.581299 -0.00730896 0.384277 0.086441ZM4.5 2.61769L4.5 3.74269L3 3.74269L1.5 3.74269L1.5 2.61769L1.5 1.49269L3 1.49269L4.5 1.49269L4.5 2.61769ZM9 2.61769L9 3.74269L7.5 3.74269L6 3.74269L6 2.61769L6 1.49269L7.5 1.49269L9 1.49269L9 2.61769ZM13.5 2.61769L13.5 3.74269L12 3.74269L10.5 3.74269L10.5 2.61769L10.5 1.49269L12 1.49269L13.5 1.49269L13.5 2.61769ZM16.7251 1.53957C18.0422 1.70832 19.2329 2.27082 20.1704 3.17551C20.3999 3.39582 20.6062 3.61144 20.6296 3.65832C20.6719 3.73801 20.5405 3.74269 17.8359 3.74269L15 3.74269L15 2.61769L15 1.49269L15.6704 1.49269C16.0359 1.49269 16.5093 1.51613 16.7251 1.53957Z" fill="#52A6DE" fill-opacity="1.000000" fill-rule="nonzero"/>
</svg>
