<svg width="23.982910" height="23.990997" viewBox="0 0 23.9829 23.991" fill="none" xmlns="http://www.w3.org/2000/svg" xmlns:xlink="http://www.w3.org/1999/xlink">
	<desc>
			Created with Pixso.
	</desc>
	<defs/>
	<path id="Vector" d="M22.6938 0.044281C22.6267 0.0635071 21.8923 0.365906 21.062 0.711487C20.2317 1.06189 19.4109 1.40271 19.238 1.46991C19.0652 1.53711 18.7339 1.66669 18.4939 1.7579C18.2588 1.85388 17.3516 2.2283 16.478 2.58829C15.6091 2.95309 14.6685 3.34189 14.3899 3.4523C14.1116 3.56268 13.7563 3.7019 13.5979 3.76428C13.4395 3.82669 12.47 4.22989 11.438 4.6571C10.4109 5.08429 9.22046 5.56909 8.79785 5.7323C8.37549 5.9003 7.43481 6.27948 6.70996 6.5867C5.42847 7.11951 4.65088 7.43628 3.75806 7.78668C3.52271 7.88269 2.68286 8.2283 1.89087 8.55951C0.345215 9.2027 0.206055 9.28909 0.0571289 9.67789C-0.101318 10.0811 0.0810547 10.5899 0.460449 10.8107C0.604492 10.8971 3.37402 11.7659 4.79004 12.1691C6.64746 12.7019 10.1277 13.7627 10.1755 13.8107C10.2092 13.8443 11.0828 16.6907 11.4619 17.9963C12.0044 19.8635 13.0652 23.3195 13.1421 23.4683C13.4395 24.0443 14.1741 24.1691 14.6443 23.7179C14.8267 23.5451 14.8315 23.5355 15.5227 21.8699C15.854 21.0731 16.1755 20.3003 16.238 20.1515C16.3052 20.0027 16.3579 19.8587 16.3579 19.8347C16.3579 19.8107 16.7419 18.8603 17.2124 17.7275C17.6829 16.5947 18.1387 15.4859 18.2251 15.2603C18.3164 15.0347 18.4268 14.7563 18.4749 14.6363C19.5308 12.0731 20.1309 10.6235 20.2268 10.4075C20.2891 10.2587 20.342 10.1147 20.342 10.0907C20.342 10.0667 20.7837 8.98669 21.3213 7.6955C21.854 6.4043 22.3245 5.26669 22.3533 5.16589C22.3867 5.06509 22.7612 4.1579 23.1787 3.1499C23.6108 2.11789 23.9563 1.22031 23.9756 1.09549C24.062 0.409088 23.3564 -0.166901 22.6938 0.044281ZM14.7212 7.84909L10.7083 11.8619L10.3291 11.7563C9.98364 11.6603 6.302 10.5515 4.72754 10.0715C4.36768 9.96109 4.07007 9.8555 4.07007 9.8363C4.07007 9.8219 4.3147 9.7067 4.60767 9.5867C4.90527 9.46188 5.7019 9.1355 6.37402 8.85709C7.0459 8.5787 7.6123 8.3483 7.63159 8.3483C7.65552 8.3483 8.63477 7.9451 9.81567 7.45551C11.0012 6.96109 12.1292 6.50031 12.3259 6.42349C12.5227 6.3515 13.1611 6.09711 13.7419 5.85229C14.3228 5.6123 15.3691 5.1803 16.0701 4.89709C16.7708 4.6091 17.6348 4.2587 17.99 4.10989C18.3452 3.96588 18.6572 3.84109 18.686 3.84109C18.71 3.8363 16.9292 5.64108 14.7212 7.84909ZM19.8811 5.97708C19.7324 6.34189 19.3196 7.35471 18.9595 8.2283C18.6045 9.09711 18.0332 10.4939 17.6973 11.3243C17.366 12.1547 16.814 13.4939 16.4827 14.3003C16.1467 15.1067 15.8203 15.8939 15.7581 16.0523C15.3596 17.0651 14.1692 19.9163 14.1453 19.9163C14.1309 19.9163 14.0923 19.8347 14.0635 19.7387C13.8765 19.1483 12.3164 13.9739 12.23 13.6571L12.1243 13.2779L16.1228 9.27948C18.3213 7.08109 20.126 5.28589 20.1355 5.2955C20.1404 5.30029 20.03 5.60748 19.8811 5.97708Z" fill="#FFFFFF" fill-opacity="1.000000" fill-rule="nonzero"/>
</svg>
