<svg width="21.104492" height="14.117645" viewBox="0 0 21.1045 14.1176" fill="none" xmlns="http://www.w3.org/2000/svg" xmlns:xlink="http://www.w3.org/1999/xlink">
	<desc>
			Created with Pixso.
	</desc>
	<defs/>
	<path id="Vector" d="M9.12988 0.0229797C7.20996 0.168732 5.67773 0.51767 4.86719 0.999146C4.48828 1.21997 3.96875 1.73679 3.68262 2.16522C3.57227 2.33749 3.35645 2.70853 3.20703 2.99564L2.93359 3.51242L2.45312 3.51242C1.90332 3.51242 1.70508 3.57867 1.52441 3.83044C1.37402 4.04688 1.37891 4.41348 1.54199 4.63876C1.69629 4.85959 1.66992 4.90378 1.23828 5.15555C0.462891 5.6105 0.291016 5.98593 0.101562 7.6644C-0.0966797 9.42236 -0.00390625 11.0876 0.370117 12.5629C0.489258 13.0355 0.617188 13.2298 0.868164 13.3447C1.00488 13.4065 1.04883 13.4507 1.07031 13.5655C1.10156 13.751 1.29102 13.9763 1.47559 14.0514C1.68262 14.1397 4.29004 14.1397 4.49707 14.0514C4.68164 13.9763 4.87109 13.751 4.90234 13.5699C4.92871 13.4286 4.93262 13.4242 5.26758 13.3756C5.45312 13.3491 5.82715 13.274 6.09082 13.2122C6.83594 13.0355 8.98438 12.8765 10.5791 12.8765C12.1904 12.8765 14.3223 13.0355 15.0752 13.2122C15.3447 13.274 15.7012 13.3491 15.8682 13.3712L16.1807 13.4198L16.2432 13.6185C16.2871 13.751 16.3662 13.8659 16.4766 13.9542L16.6475 14.0912L18.0391 14.1044C18.9473 14.1132 19.4932 14.1 19.5986 14.0691C19.7969 14.0116 20.0166 13.7687 20.0566 13.5655C20.0791 13.4463 20.1143 13.4021 20.2197 13.3623C20.5498 13.2475 20.6729 13.0045 20.8584 12.1035C21.0781 11.0434 21.1094 10.6989 21.1045 9.47537C21.1006 7.87201 20.9375 6.52481 20.6729 5.92853C20.5498 5.65024 20.2021 5.31454 19.8184 5.11136C19.4619 4.92145 19.4316 4.85519 19.5811 4.63876C19.7441 4.41348 19.748 4.04688 19.5986 3.83044C19.418 3.57867 19.2197 3.51242 18.6689 3.51242L18.1846 3.51242L17.9424 3.03537C17.4189 2.01505 16.8721 1.3569 16.2295 0.981476C15.4854 0.548615 14.1943 0.234985 12.499 0.0671387C11.8564 0.00088501 9.76855 -0.0212097 9.12988 0.0229797ZM11.8828 1.43643C13.4941 1.55127 14.7412 1.80304 15.4453 2.1608C15.8945 2.3905 16.2646 2.85428 16.7012 3.72443C16.9873 4.29422 17.0088 4.47974 16.8154 4.62549C16.7051 4.70502 16.6523 4.70502 14.6572 4.63434C12.0107 4.53717 9.12988 4.53717 6.51367 4.63434C4.46191 4.70941 4.42188 4.70941 4.31152 4.62549C4.10547 4.47531 4.13184 4.29865 4.45703 3.65375C5.02539 2.53183 5.39062 2.19171 6.33301 1.90463C7.68066 1.49384 9.95801 1.30389 11.8828 1.43643ZM3.19824 6.54248C3.88965 6.74124 4.51465 7.00186 4.7793 7.20502C4.92871 7.31989 4.97266 7.48331 4.87109 7.56723C4.77441 7.64673 3.83594 7.72183 2.91992 7.72623C2.06641 7.73065 2.03516 7.72623 1.82324 7.62024C1.48926 7.45239 1.42285 7.33313 1.42285 6.89142C1.42285 6.46738 1.4668 6.3923 1.74023 6.33487C2.03027 6.27304 2.50195 6.33929 3.19824 6.54248ZM19.6338 6.40997C19.6826 6.45856 19.7002 6.57782 19.7002 6.86932C19.6953 7.33752 19.6387 7.44797 19.2988 7.62024C19.0879 7.72623 19.0615 7.73065 18.2021 7.72623C17.2598 7.72183 16.3486 7.64673 16.2559 7.56723C15.9561 7.31989 16.7139 6.86493 18.0264 6.51596C18.8545 6.29071 19.4707 6.25095 19.6338 6.40997ZM12.4111 9.27219C14.2031 9.51953 15.1328 9.80222 15.3887 10.1821C15.582 10.4692 15.4854 10.7696 15.1152 11.0125C14.7324 11.2687 14.8066 11.2643 10.5176 11.2643L6.57617 11.2643L6.31152 11.1583C5.9502 11.0125 5.67285 10.743 5.6416 10.5089C5.62402 10.3588 5.6377 10.3102 5.74316 10.1865C6.0957 9.76691 6.82715 9.5372 8.49121 9.3252C8.96289 9.26337 9.43848 9.20593 9.54883 9.19269C9.98438 9.15292 11.9219 9.20593 12.4111 9.27219Z" fill="#9294AD" fill-opacity="1.000000" fill-rule="nonzero"/>
</svg>
