<svg width="136.000000" height="24.000000" viewBox="0 0 136 24" fill="none" xmlns="http://www.w3.org/2000/svg" xmlns:xlink="http://www.w3.org/1999/xlink">
	<desc>
			Created with Pixso.
	</desc>
	<defs>
		<clipPath id="clip195_1498">
			<rect width="24.000000" height="24.000000" fill="white" fill-opacity="0"/>
		</clipPath>
	</defs>
	<rect width="24.000000" height="24.000000" fill="#FFFFFF" fill-opacity="0"/>
	<g clip-path="url(#clip195_1498)">
		<path d="M22.7041 0.047821C22.6367 0.0670471 21.9023 0.369446 21.0713 0.715027C20.2412 1.06543 19.4209 1.40625 19.248 1.47345C19.0752 1.54065 18.7441 1.67023 18.5039 1.76144C18.2686 1.85742 17.3613 2.23184 16.4873 2.59183C15.6191 2.95663 14.6777 3.34543 14.3994 3.45584C14.1211 3.56622 13.7666 3.70544 13.6074 3.76782C13.4492 3.83023 12.4795 4.23343 11.4473 4.66064C10.4209 5.08783 9.23047 5.57263 8.80762 5.73584C8.38574 5.90384 7.44434 6.28302 6.71973 6.59024C5.43848 7.12305 4.66016 7.43982 3.76758 7.79022C3.53223 7.88623 2.69238 8.23184 1.90039 8.56305C0.354492 9.20624 0.21582 9.29263 0.0673828 9.68143C-0.0917969 10.0846 0.0908203 10.5934 0.469727 10.8142C0.614258 10.9006 3.38379 11.7694 4.7998 12.1726C6.65723 12.7054 10.1377 13.7662 10.1855 13.8142C10.2188 13.8478 11.0928 16.6942 11.4717 17.9998C12.0137 19.867 13.0752 23.323 13.1514 23.4718C13.4492 24.0479 14.1836 24.1726 14.6543 23.7214C14.8369 23.5486 14.8418 23.539 15.5322 21.8734C15.8633 21.0766 16.1855 20.3038 16.248 20.155C16.3145 20.0062 16.3682 19.8622 16.3682 19.8382C16.3682 19.8142 16.752 18.8638 17.2217 17.731C17.6924 16.5982 18.1484 15.4894 18.2354 15.2638C18.3262 15.0382 18.4365 14.7598 18.4844 14.6398C19.541 12.0766 20.1406 10.627 20.2363 10.411C20.2988 10.2622 20.3516 10.1182 20.3516 10.0942C20.3516 10.0702 20.793 8.99023 21.3311 7.69904C21.8633 6.40784 22.334 5.27023 22.3633 5.16943C22.3965 5.06863 22.7705 4.16144 23.1885 3.15344C23.6201 2.12143 23.9658 1.22385 23.9854 1.09903C24.0713 0.412628 23.3662 -0.163361 22.7041 0.047821ZM14.7305 7.85263L10.7178 11.8654L10.3389 11.7598C9.99316 11.6638 6.31152 10.555 4.7373 10.075C4.37695 9.96463 4.08008 9.85904 4.08008 9.83984C4.08008 9.82544 4.32422 9.71024 4.61719 9.59024C4.91504 9.46542 5.71191 9.13904 6.38379 8.86063C7.05566 8.58224 7.62207 8.35184 7.6416 8.35184C7.66504 8.35184 8.64453 7.94864 9.8252 7.45905C11.0107 6.96463 12.1387 6.50385 12.3359 6.42703C12.5322 6.35504 13.1709 6.10065 13.752 5.85583C14.333 5.61584 15.3789 5.18384 16.0801 4.90063C16.7803 4.61264 17.6445 4.26224 18 4.11343C18.3545 3.96942 18.667 3.84464 18.6953 3.84464C18.7197 3.83984 16.9385 5.64462 14.7305 7.85263ZM19.8906 5.98062C19.7422 6.34543 19.3291 7.35825 18.9697 8.23184C18.6143 9.10065 18.043 10.4974 17.707 11.3278C17.376 12.1582 16.8242 13.4974 16.4922 14.3038C16.1562 15.1102 15.8301 15.8974 15.7676 16.0558C15.3691 17.0686 14.1787 19.9198 14.1553 19.9198C14.1406 19.9198 14.1025 19.8382 14.0732 19.7422C13.8857 19.1518 12.3262 13.9774 12.2393 13.6606L12.1338 13.2814L16.1328 9.28302C18.3311 7.08463 20.1357 5.28943 20.1455 5.29904C20.1504 5.30383 20.04 5.61102 19.8906 5.98062Z" fill="#52A6DE" fill-opacity="1.000000" fill-rule="nonzero"/>
		<path d="M2.08789 15.1152C1.82812 15.2352 0.172852 16.9056 0.0712891 17.1456C-0.0771484 17.5056 0.0234375 17.9232 0.331055 18.2208C0.594727 18.48 1.13281 18.5424 1.4873 18.36C1.55469 18.3264 2.01074 17.8896 2.5 17.3904C3.36426 16.5216 3.39844 16.4784 3.45605 16.224C3.52734 15.888 3.46484 15.6192 3.24902 15.3744C2.95605 15.0384 2.47656 14.9328 2.08789 15.1152Z" fill="#52A6DE" fill-opacity="1.000000" fill-rule="nonzero"/>
		<path d="M7.55469 15.144C7.37695 15.2304 6.96484 15.6192 5.9707 16.6176C4.5498 18.0528 4.51172 18.1056 4.51172 18.5328C4.5166 19.0032 5.00586 19.488 5.47656 19.488C5.89844 19.488 5.94727 19.4496 7.44434 17.9568C8.74023 16.6608 8.87012 16.5168 8.92773 16.3056C9.16309 15.432 8.35156 14.7456 7.55469 15.144Z" fill="#52A6DE" fill-opacity="1.000000" fill-rule="nonzero"/>
		<path d="M7.70312 20.568C7.59766 20.6064 7.50195 20.64 7.49219 20.64C7.47754 20.64 7.06445 21.0432 6.56543 21.5376C5.79297 22.3104 5.65332 22.4688 5.58691 22.6704C5.3125 23.496 6.12402 24.264 6.8877 23.9088C7.14648 23.7888 8.80273 22.1184 8.90332 21.8784C9.11914 21.3552 8.80273 20.6976 8.26953 20.5488C8.03418 20.4816 7.93848 20.4864 7.70312 20.568Z" fill="#52A6DE" fill-opacity="1.000000" fill-rule="nonzero"/>
	</g>
	<path d="M71.9014 10.9061L71.9014 12.6961Q71.9014 18.6298 69.6025 21.3149Q69.4619 21.4813 69.3105 21.6374L69.3096 21.6383L69.3086 21.6393L69.3086 21.6397Q67.0225 24 62.2998 24Q57.5762 24 55.29 21.6397Q55.1387 21.4825 54.9971 21.3149Q52.7656 18.6298 52.7656 12.5967L52.7656 10.8729Q52.7656 5.37018 55.0303 2.68509Q55.2168 2.46762 55.4199 2.26779Q57.7295 0 62.2656 0Q66.8066 0 69.1465 2.26959L69.1484 2.27148Q69.3682 2.48483 69.5684 2.71823Q71.9014 5.43646 71.9014 10.9061ZM93.6592 12.6961L93.6592 10.9061C93.6592 7.25967 92.8809 4.5304 91.3262 2.71823Q91.125 2.4838 90.9043 2.26959Q88.5645 0 84.0234 0Q79.4873 0 77.1777 2.26779Q76.9746 2.46762 76.7881 2.68509Q74.5234 5.37018 74.5234 10.8729L74.5234 12.5967Q74.5234 18.6298 76.7549 21.3149Q76.8955 21.4825 77.0479 21.6397Q79.334 24 84.0576 24Q88.7803 24 91.0664 21.6397Q91.2188 21.4825 91.3594 21.3149Q93.6592 18.6298 93.6592 12.6961ZM113.997 16.8398C113.997 19.0718 113.163 20.8287 111.495 22.1105C109.827 23.3702 107.697 24 105.104 24C103.054 24 101.07 23.4475 99.1543 22.3425C98.208 21.7679 97.4307 20.9613 96.8223 19.9226C96.2129 18.8619 95.9092 17.6575 95.9092 16.3094L100.169 16.1105C100.169 17.3039 100.688 18.2321 101.724 18.895C102.761 19.558 103.91 19.8895 105.173 19.8895Q108.035 19.8895 108.959 18.5514Q109.398 17.9138 109.398 16.9724C109.398 15.3812 108.44 14.442 106.525 14.1547L102.604 13.7569C100.643 13.4696 99.0869 12.7845 97.9375 11.7017C96.7881 10.6188 96.2129 9.06076 96.2129 7.02762C96.2129 4.99448 97.0361 3.31491 98.6816 1.98895C100.326 0.662994 102.4 0 104.902 0C107.427 0 109.455 0.629822 110.987 1.8895C112.521 3.12708 113.287 4.72928 113.287 6.69614L109.095 6.89502C108.711 4.97238 107.393 4.01105 105.139 4.01105C103.764 4.01105 102.682 4.29834 101.894 4.87292C101.127 5.44751 100.743 6.1326 100.743 6.92819C100.743 7.70166 101.025 8.32043 101.589 8.78455C102.152 9.22653 102.851 9.50278 103.685 9.61325L107.539 10.011C111.844 10.5856 113.997 12.8619 113.997 16.8398ZM49.4453 17.0055C49.4453 19.1934 48.8369 20.8729 47.6191 22.0442Q47.4531 22.207 47.2754 22.3546Q45.5273 23.8011 42.582 23.8011L39.3369 23.8011Q35.3467 23.8011 33.6562 22.442Q33.6465 22.4336 33.6367 22.4252Q32 21.0623 32 17.7348L32 0.198883L42.1768 0.198883Q45.625 0.198883 47.3496 1.8895Q47.6064 2.13724 47.8262 2.41489Q49.1074 4.03189 49.1074 6.66299C49.1074 7.85635 48.792 8.87292 48.1602 9.71271Q47.248 10.9724 46.1318 11.5028C48.3408 12.5193 49.4453 14.3536 49.4453 17.0055ZM131.098 23.8011L136 23.8011L128.292 2.18784C127.999 1.39227 127.66 0.861877 127.277 0.59668C126.917 0.331482 126.433 0.198883 125.823 0.198883C125.215 0.198883 124.696 0.342529 124.269 0.629822C123.862 0.917114 123.491 1.43646 123.152 2.18784L115.444 23.8011L120.347 23.8011L121.665 19.7238L129.745 19.7238L131.098 23.8011ZM67.2021 12.5967L67.2021 11.3702C67.2021 9.24863 66.9316 7.55801 66.3906 6.29834C65.7588 4.83978 64.4072 4.1105 62.333 4.1105Q60.0742 4.1105 58.9492 5.24014Q58.5088 5.68259 58.2422 6.29834Q57.4648 8.08841 57.4648 11.3702L57.4648 12.5967C57.4648 15.4475 57.8701 17.3702 58.6816 18.3646C58.9971 18.7845 59.46 19.1492 60.0684 19.4586C60.6992 19.7458 61.4434 19.8895 62.2998 19.8895Q63.6182 19.8895 64.5312 19.4586C65.1396 19.1713 65.6123 18.8177 65.9512 18.3978C66.2891 17.9779 66.5479 17.4254 66.7285 16.7403C67.0439 15.6575 67.2021 14.2762 67.2021 12.5967ZM88.959 11.3702L88.959 12.5967C88.959 14.2762 88.8018 15.6575 88.4863 16.7403C88.3057 17.4254 88.0469 17.9779 87.709 18.3978C87.3701 18.8177 86.8975 19.1713 86.2881 19.4586C85.6797 19.7458 84.9365 19.8895 84.0576 19.8895C83.2012 19.8895 82.457 19.7458 81.8262 19.4586C81.2168 19.1492 80.7549 18.7845 80.4395 18.3646C79.6279 17.3702 79.2227 15.4475 79.2227 12.5967L79.2227 11.3702C79.2227 9.18231 79.4814 7.4917 80 6.29834Q80.2666 5.68259 80.707 5.24014Q81.832 4.1105 84.0908 4.1105Q86.3018 4.1105 87.4199 5.21585Q87.874 5.66559 88.1484 6.29834C88.6895 7.55801 88.959 9.24863 88.959 11.3702ZM41.8047 9.41437Q43.1318 9.41437 43.7822 8.75085Q44.4082 8.11298 44.4082 6.86188Q44.4082 5.61078 43.7822 4.9729Q43.1318 4.30939 41.8047 4.30939L36.6992 4.30939L36.6992 9.41437L41.8047 9.41437ZM125.823 6.49725L128.663 15.8453L122.849 15.8453L125.823 6.49725ZM44.7461 16.7735C44.7461 15.7127 44.5547 14.9171 44.1709 14.3867Q44.1094 14.2984 44.0381 14.2194L44.0381 14.2194Q43.4375 13.558 42.1084 13.558L36.6992 13.558L36.6992 17.2707C36.6992 18.1768 36.9248 18.8066 37.376 19.1602Q38.0859 19.6906 39.6748 19.6906L42.1084 19.6906Q43.2949 19.6906 43.9473 19.1006Q44.7461 18.3788 44.7461 16.7735Z" fill="#52A6DE" fill-opacity="1.000000" fill-rule="evenodd"/>
</svg>
